<?xml version="1.0" encoding="utf-8"?>
<svg width="800px" height="800px" viewBox="0 0 100 100" xmlns="http://www.w3.org/2000/svg"
    xmlns:xlink="http://www.w3.org/1999/xlink" aria-hidden="true" role="img" class="iconify iconify--gis"
    preserveAspectRatio="xMidYMid meet">
    <defs>
        <linearGradient id="gradient1" x1="0%" y1="0%" x2="100%" y2="100%">
            <stop offset="0%" style="stop-color:red; stop-opacity:1" />
            <stop offset="20%" style="stop-color:green; stop-opacity:1" />
            <stop offset="40%" style="stop-color:yellow; stop-opacity:1" />
            <stop offset="60%" style="stop-color:magenta; stop-opacity:1" />
            <stop offset="80%" style="stop-color:blue; stop-opacity:1" />
            <stop offset="100%" style="stop-color:cyan; stop-opacity:1" />
        </linearGradient>
    </defs>

    <path
        d="M44.55 10.526C18.234 10.526 0 31.58 0 42.106s5.263 18.42 15.79 18.42c10.526 0 15.789 2.632 15.789 10.527c0 10.526 7.895 18.42 18.421 18.42c34.21 0 50-18.42 50-36.841c0-31.58-23.87-42.106-55.45-42.106zm-7.024 10.527a6.58 6.58 0 1 1 0 13.158a6.58 6.58 0 0 1 0-13.158zm21.053 0a6.58 6.58 0 1 1 0 13.158a6.58 6.58 0 0 1 0-13.158zm19.053 10.526a6.579 6.579 0 1 1 0 13.158a6.579 6.579 0 0 1 0-13.158zm-58.527 1.263a6.58 6.58 0 1 1 0 13.158a6.58 6.58 0 0 1 0-13.158zM54 63.158a7.895 7.895 0 0 1 7.895 7.895c0 4.36-5.535 7.894-9.895 7.894a7.895 7.895 0 0 1-7.895-7.894c0-4.36 5.535-7.895 9.895-7.895z"
        fill="url(#gradient1)"></path>
</svg>